<svg width="91" height="24" viewBox="0 0 91 24" fill="none" xmlns="http://www.w3.org/2000/svg">
<path d="M27.1953 22.1424H29.6106L30.2076 20.6699H33.4099L34.0206 22.1424H36.4901L32.9622 13.8206H30.7368L27.1953 22.1424ZM30.8861 18.8866L31.8224 16.536L32.7451 18.8866H30.8861Z" fill="#073C71"/>
<path d="M40.7514 22.3174C42.5832 22.3174 43.6416 21.5203 44.4286 20.4531L42.6918 19.2237C42.1897 19.8316 41.6877 20.2234 40.8192 20.2234C39.6523 20.2234 38.8381 19.2507 38.8381 18.0213V17.9943C38.8381 16.792 39.6523 15.8058 40.8192 15.8058C41.6198 15.8058 42.1626 16.184 42.6375 16.7785L44.3743 15.441C43.6416 14.4278 42.5425 13.7118 40.8599 13.7118C38.3496 13.7118 36.4907 15.6031 36.4907 18.0078V18.0348C36.4771 20.5071 38.3768 22.3174 40.7514 22.3174Z" fill="#073C71"/>
<path d="M44.6862 22.1424H47.1015L47.6986 20.6699H50.9009L51.5115 22.1424H53.9811L50.4531 13.8206H48.2413L44.6862 22.1424ZM48.377 18.8866L49.3133 16.536L50.236 18.8866H48.377Z" fill="#073C71"/>
<path d="M54.7681 22.1427H57.9161C60.9013 22.1427 62.6518 20.373 62.6518 17.9818V17.9548C62.6518 15.5771 60.9285 13.8749 57.9704 13.8749H54.7681V22.1427ZM57.0749 20.1163V15.9148H58.0111C59.3816 15.9148 60.3043 16.6849 60.3043 18.0088V18.0358C60.3043 19.3733 59.3952 20.1298 58.0111 20.1298H57.0749V20.1163Z" fill="#073C71"/>
<path d="M63.8313 22.1427H70.5616V20.1973H66.0974V18.8869H70.0867V17.0766H66.0974V15.8203H70.4938V13.8749H63.8178V22.1427H63.8313Z" fill="#073C71"/>
<path d="M71.7425 22.1404H73.9949V17.4256L76.1117 20.6409H76.1524L78.2692 17.4121V22.1539H80.5624V13.8861H78.1335L76.1524 17.0879L74.1713 13.8861H71.7425V22.1404Z" fill="#073C71"/>
<path d="M84.4295 22.1427H86.7363V19.0085L89.8843 13.8749H87.3062L85.5829 16.8875L83.8732 13.8749H81.2543L84.4024 19.049V22.1427H84.4295Z" fill="#073C71"/>
<path d="M34.0204 9.63171L33.1656 8.78061C32.9213 8.99676 32.6907 9.17239 32.4464 9.29397C32.2022 9.41556 31.9172 9.48311 31.5644 9.48311C31.3066 9.48311 31.0624 9.42907 30.8453 9.3345C30.6282 9.22643 30.4518 9.09133 30.2889 8.91571C30.1397 8.74008 30.0176 8.53744 29.9361 8.30778C29.8547 8.07812 29.8004 7.83494 29.8004 7.56475V7.55124C29.8004 7.29456 29.8412 7.05139 29.9361 6.82173C30.0176 6.59207 30.1397 6.38942 30.3025 6.2138C30.4653 6.03818 30.6417 5.90308 30.8588 5.80851C31.0759 5.71395 31.3202 5.65991 31.578 5.65991C31.8901 5.65991 32.1615 5.71395 32.4057 5.83553C32.65 5.95712 32.8942 6.11923 33.1385 6.33539L33.9933 5.3627C33.8576 5.2276 33.7084 5.09251 33.5455 4.98443C33.3827 4.86285 33.2063 4.76828 33.0163 4.68722C32.8264 4.60617 32.6093 4.53862 32.3786 4.49809C32.1479 4.45756 31.8901 4.43054 31.6051 4.43054C31.1302 4.43054 30.7096 4.5116 30.3161 4.68722C29.9226 4.84934 29.5969 5.079 29.312 5.3627C29.027 5.6464 28.8099 5.98414 28.6606 6.3624C28.4978 6.74067 28.43 7.14596 28.43 7.57826V7.59177C28.43 8.02408 28.5114 8.42936 28.6606 8.80763C28.8235 9.1859 29.0406 9.52364 29.312 9.80734C29.5969 10.091 29.9226 10.3072 30.3025 10.4693C30.6824 10.6314 31.1031 10.7125 31.5509 10.7125C31.8494 10.7125 32.1072 10.6855 32.3514 10.6314C32.5957 10.5909 32.8128 10.5098 33.0028 10.4288C33.2063 10.3342 33.3963 10.2126 33.5591 10.0775C33.6948 9.95594 33.8576 9.80734 34.0204 9.63171Z" fill="#073C71"/>
<path d="M40.4386 9.63171L39.5837 8.78061C39.3395 8.99676 39.1088 9.17239 38.8645 9.29397C38.6203 9.41556 38.3354 9.48311 37.9826 9.48311C37.7247 9.48311 37.4805 9.42907 37.2634 9.3345C37.0463 9.22643 36.8699 9.09133 36.7071 8.91571C36.5578 8.74008 36.4357 8.53744 36.3543 8.30778C36.2728 8.07812 36.2186 7.83494 36.2186 7.56475V7.55124C36.2186 7.29456 36.2593 7.05139 36.3543 6.82173C36.4357 6.59207 36.5578 6.38942 36.7206 6.2138C36.8835 6.03818 37.0599 5.90308 37.277 5.80851C37.4941 5.71395 37.7383 5.65991 37.9961 5.65991C38.3082 5.65991 38.5796 5.71395 38.8238 5.83553C39.0681 5.95712 39.3123 6.11923 39.5566 6.33539L40.4114 5.3627C40.2757 5.2276 40.1265 5.09251 39.9636 4.98443C39.8008 4.86285 39.6244 4.76828 39.4345 4.68722C39.2445 4.60617 39.0274 4.53862 38.7967 4.49809C38.566 4.45756 38.3082 4.43054 38.0233 4.43054C37.5483 4.43054 37.1277 4.5116 36.7342 4.68722C36.3407 4.84934 36.015 5.079 35.7301 5.3627C35.4451 5.6464 35.228 5.98414 35.0788 6.3624C34.9159 6.74067 34.8481 7.14596 34.8481 7.57826V7.59177C34.8481 8.02408 34.9295 8.42936 35.0788 8.80763C35.2416 9.1859 35.4587 9.52364 35.7301 9.80734C36.015 10.091 36.3407 10.3072 36.7206 10.4693C37.1006 10.6314 37.5212 10.7125 37.969 10.7125C38.2675 10.7125 38.5253 10.6855 38.7696 10.6314C39.0138 10.5909 39.2309 10.5098 39.4209 10.4288C39.6244 10.3342 39.8144 10.2126 39.9772 10.0775C40.1265 9.95594 40.2893 9.80734 40.4386 9.63171Z" fill="#073C71"/>
<path d="M46.6939 8.95464V8.94113C46.6939 8.53585 46.5989 8.22513 46.3954 7.99547C46.1918 7.76581 45.9204 7.57667 45.5541 7.45509C45.6626 7.40105 45.7712 7.3335 45.8526 7.25244C45.9476 7.17139 46.029 7.07682 46.1104 6.96874C46.1918 6.86067 46.2461 6.73908 46.2868 6.60399C46.3275 6.46889 46.3546 6.32029 46.3546 6.14466V6.11764C46.3546 5.64481 46.1782 5.25303 45.8119 4.96933C45.4591 4.68563 44.9706 4.55054 44.3464 4.55054H41.524V10.6163H44.4278C44.7671 10.6163 45.0791 10.5758 45.3641 10.5082C45.649 10.4407 45.8933 10.3326 46.0833 10.1975C46.2868 10.0624 46.4361 9.8868 46.5446 9.68416C46.6396 9.46801 46.6939 9.22483 46.6939 8.95464ZM45.0249 6.36081C45.0249 6.59048 44.9435 6.75259 44.7671 6.86067C44.5907 6.95523 44.36 7.00927 44.0615 7.00927H42.8131V5.71236H44.1293C44.4143 5.71236 44.6314 5.7664 44.7806 5.87447C44.9299 5.98255 45.0113 6.13115 45.0113 6.3338V6.36081H45.0249ZM45.3641 8.77902C45.3641 9.00868 45.2827 9.1708 45.1063 9.27887C44.9435 9.38695 44.6992 9.44099 44.4143 9.44099H42.8131V8.10354H44.36C44.7128 8.10354 44.957 8.15758 45.1199 8.27917C45.2827 8.40075 45.3505 8.54936 45.3505 8.752V8.77902H45.3641Z" fill="#073C71"/>
<path d="M52.6101 6.65802V6.64451C52.6101 6.3338 52.5559 6.05009 52.4473 5.79341C52.3388 5.53673 52.1895 5.30707 51.986 5.13145C51.7824 4.94231 51.5517 4.80722 51.2532 4.71265C50.9683 4.60458 50.6426 4.55054 50.2762 4.55054H47.7931V10.6163H49.1364V8.79253H50.1541C50.4933 8.79253 50.819 8.752 51.1175 8.65743C51.4161 8.56287 51.6739 8.42777 51.9045 8.25215C52.1352 8.07652 52.3116 7.84686 52.4337 7.59018C52.5559 7.31999 52.6101 7.00927 52.6101 6.65802ZM51.2532 6.68504C51.2532 6.94172 51.1582 7.15788 50.9683 7.34701C50.7783 7.52263 50.5205 7.60369 50.1813 7.60369H49.1229V5.75289H50.1541C50.4933 5.75289 50.7512 5.83394 50.9411 5.98255C51.1447 6.14466 51.2397 6.36081 51.2397 6.67153V6.68504H51.2532Z" fill="#073C71"/>
<path d="M59.0961 4.49805L55.7581 8.34826L55.9752 9.29393H58.9468V10.6044H60.2223V9.29393H61.0365V8.21317H60.2223V4.49805H59.0961ZM58.9468 8.22668H57.3321L58.9468 6.33534V8.22668Z" fill="#073C71"/>
<path d="M63.4384 10.6183V9.22681H62.0272V10.6183H63.4384Z" fill="#073C71"/>
<path d="M69.8567 7.57794C69.8567 7.14563 69.7889 6.72684 69.6668 6.34857C69.5446 5.9703 69.3547 5.63256 69.124 5.34886C68.8933 5.06516 68.6084 4.84901 68.2692 4.6869C67.9435 4.52478 67.5636 4.44373 67.1701 4.44373C66.763 4.44373 66.3966 4.52478 66.0574 4.6869C65.7317 4.84901 65.4468 5.06516 65.2025 5.34886C64.9583 5.63256 64.7819 5.9703 64.6462 6.34857C64.5241 6.72684 64.4562 7.14563 64.4562 7.57794C64.4562 8.02375 64.5241 8.42904 64.6462 8.82081C64.7683 9.19908 64.9583 9.52331 65.189 9.80701C65.4332 10.0907 65.7046 10.3069 66.0438 10.469C66.383 10.6311 66.7494 10.6986 67.1565 10.6986C67.5636 10.6986 67.9299 10.6176 68.2556 10.4555C68.5948 10.2934 68.8798 10.0772 69.124 9.7935C69.3682 9.5098 69.5446 9.17206 69.6668 8.79379C69.7889 8.42904 69.8567 8.01024 69.8567 7.57794ZM68.4863 7.59145C68.4863 7.87515 68.4591 8.13183 68.3913 8.36149C68.337 8.59115 68.242 8.79379 68.1335 8.96942C68.0113 9.14504 67.8756 9.28014 67.7128 9.3747C67.55 9.46927 67.3736 9.5098 67.1701 9.5098C66.9665 9.5098 66.7765 9.45576 66.6137 9.3612C66.4509 9.26663 66.3152 9.13153 66.1931 8.95591C66.0709 8.78029 65.9895 8.57764 65.9217 8.33447C65.8538 8.0913 65.8267 7.83462 65.8267 7.56443C65.8267 7.28073 65.8538 7.02405 65.9081 6.79438C65.976 6.55121 66.0574 6.36208 66.1795 6.18646C66.3016 6.01083 66.4373 5.87574 66.6001 5.78117C66.763 5.6866 66.9394 5.63256 67.1429 5.63256C67.3464 5.63256 67.5228 5.6866 67.6857 5.78117C67.8485 5.87574 67.9978 6.01083 68.1063 6.18646C68.2284 6.36208 68.3099 6.56472 68.3777 6.80789C68.4455 7.05106 68.4863 7.30775 68.4863 7.59145Z" fill="#073C71"/>
<path fill-rule="evenodd" clip-rule="evenodd" d="M20.2905 3.45374H13.0039L13.5738 5.02084C13.6959 5.37209 13.6009 5.79088 13.3296 6.03406L9.54377 9.68163C9.36737 9.85725 9.12312 9.95182 8.86531 9.95182H8.7839L4.55032 9.65461V19.1248C4.55032 21.1242 6.17862 22.7453 8.18685 22.7453H20.2905C22.2988 22.7453 23.9271 21.1242 23.9271 19.1248V7.06078C23.9271 5.07488 22.2988 3.45374 20.2905 3.45374ZM7.86119 15.5718L7.41341 14.9639L18.608 6.87165L17.3867 6.68251L17.5089 5.93949L20.0056 6.33127L19.5985 8.81702L18.8522 8.69543L19.0422 7.47958L7.86119 15.5718ZM20.1141 14.1533L20.1006 19.8543H8.67534V16.8147H12.1083V13.775H15.8941V11.3028H20.1141V14.1533Z" fill="url(#paint0_linear)"/>
<path d="M7.84611 6.37168L3.44971 6.04745L4.26386 8.29004C4.29099 8.37109 4.35884 8.42513 4.45382 8.42513L8.9045 8.74936C8.97235 8.74936 9.02662 8.73585 9.06733 8.69532L12.2832 5.60164C12.3375 5.5476 12.3646 5.45303 12.3375 5.37198L11.5233 3.12939L8.34817 6.19606C8.28032 6.26361 8.19891 6.30414 8.11749 6.34466C8.03608 6.37168 7.94109 6.38519 7.84611 6.37168Z" fill="url(#paint1_linear)"/>
<path d="M1.71359 10.018L2.22922 11.423C2.26993 11.5311 2.39205 11.5851 2.5006 11.5446L3.70826 11.1123C3.81681 11.0718 3.87109 10.9502 3.83038 10.8421L3.31475 9.43713C3.28761 9.36958 3.23334 9.31555 3.16549 9.30204L2.52774 9.15343L1.1844 5.46533L7.88755 5.95167C7.9554 5.95167 8.00967 5.93816 8.05038 5.89763L12.9353 1.1693C12.976 1.12877 12.9895 1.08824 13.0031 1.0342C13.0167 0.912616 12.9217 0.81805 12.7996 0.80454L6.01501 0.304688C5.94717 0.304688 5.89289 0.318197 5.85218 0.358726L1.74073 4.33053L6.53064 2.60131C6.63919 2.56078 6.76131 2.61482 6.80202 2.72289C6.84273 2.83097 6.78845 2.95256 6.6799 2.99308L1.03514 5.04653C0.818031 5.12759 0.695909 5.37076 0.777324 5.58691L2.13424 9.28853L1.74073 9.8154C1.70003 9.88295 1.68646 9.95049 1.71359 10.018Z" fill="url(#paint2_linear)"/>
<path d="M7.84611 6.37168L3.44971 6.04745L4.26386 8.29004C4.29099 8.37109 4.35884 8.42513 4.45382 8.42513L8.9045 8.74936C8.97235 8.74936 9.02662 8.73585 9.06733 8.69532L12.2832 5.60164C12.3375 5.5476 12.3646 5.45303 12.3375 5.37198L11.5233 3.12939L8.34817 6.19606C8.28032 6.26361 8.19891 6.30414 8.11749 6.34466C8.03608 6.37168 7.94109 6.38519 7.84611 6.37168Z" fill="url(#paint3_linear)"/>
<defs>
<linearGradient id="paint0_linear" x1="4.54897" y1="13.0995" x2="23.9257" y2="13.0995" gradientUnits="userSpaceOnUse">
<stop stop-color="#396AFC"/>
<stop offset="1" stop-color="#2948FF"/>
</linearGradient>
<linearGradient id="paint1_linear" x1="3.44794" y1="5.93943" x2="12.3464" y2="5.93943" gradientUnits="userSpaceOnUse">
<stop stop-color="#396AFC"/>
<stop offset="1" stop-color="#2948FF"/>
</linearGradient>
<linearGradient id="paint2_linear" x1="0.750186" y1="5.93138" x2="13.0026" y2="5.93138" gradientUnits="userSpaceOnUse">
<stop stop-color="#396AFC"/>
<stop offset="1" stop-color="#2948FF"/>
</linearGradient>
<linearGradient id="paint3_linear" x1="3.44794" y1="5.93943" x2="12.3464" y2="5.93943" gradientUnits="userSpaceOnUse">
<stop stop-color="#396AFC"/>
<stop offset="1" stop-color="#2948FF"/>
</linearGradient>
</defs>
</svg>
