<svg width="587" height="162" viewBox="0 0 587 162" fill="none" xmlns="http://www.w3.org/2000/svg">
<path fill-rule="evenodd" clip-rule="evenodd" d="M72.8752 8.29798C58.9605 13.9325 54.2477 21.1241 52.6513 31.9474C58.6585 29.7753 67.3672 19.7476 72.8752 8.29798ZM48.3298 81.2047C44.9603 82.6192 37.1773 90.8639 41.2703 102.175C46.1871 97.4942 50.6344 88.9311 48.3298 81.2047ZM46.7724 117.84C50.8629 113.554 54.1062 104.339 50.5753 95.755C42.7709 101.408 43.5618 112.144 46.7724 117.84ZM48.151 66.9728C41.6638 67.7444 37.8917 77.744 38.6631 84.1539C44.201 80.9396 49.3257 76.175 48.151 66.9728ZM52.5085 54.7405C48.9347 54.4278 40.5543 57.9119 39.2747 67.7158C44.6453 66.2783 52.4074 61.667 52.5085 54.7405ZM58.1801 41.3152C55.5947 40.9545 46.6406 43.4482 43.5347 53.5937C48.9253 53.0583 56.1226 50.7139 58.1801 41.3152ZM49.0748 40.805C53.9545 40.7405 63.4907 35.6863 65.1906 28.8913C60.5506 28.3096 52.0257 33.5375 49.0748 40.805ZM47.1195 119.934C43.551 111.47 34.7291 105.02 29.275 104.86C30.819 118.206 41.5913 120.614 47.1195 119.934ZM55.2998 131.809C58.237 126.732 60.1593 116.668 54.6071 112.16C51.7783 114.401 47.8036 122.543 55.2998 131.809ZM56.8172 134.51C53.4035 130.34 44.1965 122.613 35.9728 123.033C41.5064 135.65 53.6732 135.49 56.8172 134.51ZM66.2783 143.745C68.2143 138.129 68.481 129.823 61.3472 124.666C59.1768 127.222 56.7148 135.716 66.2783 143.745ZM67.8956 145.995C63.6154 142.484 50.9796 134.99 43.0928 137.094C51.0044 150.194 65.0595 147.491 67.8956 145.995ZM81.2245 154.569C82.9174 147.013 77.1421 140.751 72.1019 136.986C68.5393 143.661 73.8755 150.667 81.2245 154.569ZM59.2821 149.694C71.1413 161.546 79.2573 158.849 80.791 155.544C75.9017 152.879 64.087 146.813 59.2821 149.694ZM39.6255 104.008C33.5353 101.283 22.6259 96.4025 28.0799 85.4867C33.868 87.7564 39.9618 101.194 40.6729 104.48C40.3445 104.33 39.9938 104.173 39.6255 104.008ZM29.0501 66.3069C24.365 75.7488 30.2433 84.1158 38.0532 87.3901C37.7929 81.7103 35.504 70.1616 29.0501 66.3069ZM38.1483 69.0359C38.0984 69.3264 38.0502 69.6064 38.0054 69.8749C33.8389 67.3584 28.9888 58.1985 35.3953 50.6892C40.2419 56.8584 38.9579 64.3268 38.1483 69.0359ZM42.0953 55.3722C43.7574 50.7195 44.8854 40.5087 41.2013 37.2025C32.9967 46.2281 39.4888 53.2197 42.0953 55.3722ZM46.8539 43.7134C49.0175 39.7575 53.7287 30.3482 50.7319 22.2793C41.0468 33.4934 45.1869 41.7135 46.8539 43.7134Z" fill="url(#paint0_linear_219_2272)"/>
<path fill-rule="evenodd" clip-rule="evenodd" d="M514.504 8.29783C528.419 13.9323 533.132 21.1239 534.728 31.9472C528.721 29.7751 520.012 19.7474 514.504 8.29783ZM539.05 81.2045C542.42 82.619 550.203 90.8638 546.11 102.175C541.193 97.494 536.746 88.931 539.05 81.2045ZM540.608 117.84C536.517 113.554 533.274 104.339 536.805 95.7549C544.609 101.408 543.818 112.143 540.608 117.84ZM539.228 66.9727C545.715 67.7442 549.488 77.7438 548.716 84.1537C543.178 80.9395 538.054 76.1749 539.228 66.9727ZM534.871 54.7406C538.445 54.4279 546.825 57.912 548.105 67.7159C542.734 66.2784 534.972 61.6671 534.871 54.7406ZM529.199 41.3151C531.785 40.9544 540.739 43.4481 543.845 53.5937C538.454 53.0582 531.257 50.7138 529.199 41.3151ZM538.304 40.8048C533.425 40.7403 523.889 35.6861 522.189 28.8912C526.829 28.3094 535.354 33.5374 538.304 40.8048ZM540.26 119.933C543.828 111.47 552.65 105.02 558.104 104.86C556.56 118.205 545.788 120.613 540.26 119.933ZM532.079 131.809C529.142 126.732 527.22 116.667 532.772 112.159C535.601 114.401 539.576 122.543 532.079 131.809ZM530.562 134.51C533.976 130.339 543.183 122.612 551.406 123.033C545.873 135.65 533.706 135.49 530.562 134.51ZM521.101 143.745C519.165 138.129 518.898 129.823 526.032 124.666C528.202 127.222 530.665 135.716 521.101 143.745ZM519.484 145.995C523.764 142.484 536.4 134.99 544.287 137.093C536.375 150.194 522.32 147.491 519.484 145.995ZM506.155 154.57C504.462 147.014 510.237 140.752 515.277 136.987C518.84 143.662 513.504 150.667 506.155 154.57ZM528.098 149.694C516.239 161.546 508.123 158.849 506.589 155.544C511.479 152.879 523.293 146.813 528.098 149.694ZM547.754 104.008C553.845 101.283 564.754 96.4024 559.3 85.4866C553.512 87.7562 547.418 101.194 546.707 104.479C547.035 104.33 547.386 104.173 547.754 104.008ZM558.329 66.3067C563.014 75.7486 557.136 84.1157 549.326 87.3899C549.586 81.7102 551.875 70.1614 558.329 66.3067ZM549.231 69.0355C549.281 69.326 549.329 69.606 549.374 69.8745C553.541 67.358 558.391 58.1981 551.984 50.6888C547.138 56.858 548.422 64.3264 549.231 69.0355ZM545.284 55.372C543.622 50.7193 542.494 40.5085 546.178 37.2023C554.383 46.2279 547.89 53.2195 545.284 55.372ZM540.525 43.7132C538.362 39.7574 533.651 30.348 536.647 22.2791C546.332 33.4933 542.192 41.7133 540.525 43.7132Z" fill="url(#paint1_linear_219_2272)"/>
<g clip-path="url(#clip0_219_2272)">
<path d="M496.818 29H100V104H496.818V29Z" fill="#01003A"/>
<path d="M160.624 74.7179L156.533 76.3473C155.088 76.9252 153.517 77.3643 151.806 77.6532C150.096 77.9536 148.409 78.0923 146.71 78.0923C142.272 78.0923 138.69 77.1447 135.963 75.2496C132.9 73.1231 131.363 70.0492 131.363 66.0161C131.363 61.9829 132.923 58.9206 136.044 56.6208C138.829 54.5753 142.249 53.5469 146.271 53.5469C147.38 53.5469 148.501 53.6393 149.645 53.8242C150.789 54.0091 151.887 54.2749 152.974 54.6216L157.007 55.9159L157.446 55.0722L157.792 55.2225L154.545 61.3821L154.175 61.1856L154.695 60.238L152.511 59.221C150.662 58.3542 148.709 57.9151 146.664 57.9151C143.994 57.9151 141.752 58.597 139.95 59.949C137.974 61.4397 136.98 63.4506 136.98 65.9699C136.98 68.4891 137.904 70.3266 139.753 71.7942C141.556 73.2271 143.844 73.9436 146.629 73.9436C147.715 73.9436 148.755 73.8397 149.772 73.6316C150.789 73.4237 151.841 73.0885 152.939 72.6262L153.91 72.2101V68.6971H146.999V69.7834H146.548V63.6701H146.999V64.7333H160.589V65.2071H159.503V74.614L160.497 74.2672L160.647 74.7063L160.624 74.7179Z" fill="#FDFFFF"/>
<path d="M186.311 77.9396H178.895V77.6107H179.896L174.259 69.4616H169.145V77.6107H170.132V77.9396H163V77.6107H163.957V56.6023H163V56.2734H176.697C178.431 56.2734 179.911 56.4379 181.137 56.7668C182.663 57.1706 183.844 57.8434 184.651 58.7854C185.608 59.892 186.087 61.3572 186.087 63.1815C186.087 64.6318 185.623 65.8729 184.711 66.8898C183.709 67.9962 182.289 68.7438 180.435 69.1325L179.567 69.312L185.324 77.6107H186.326V77.9396H186.311ZM180.958 62.8974C180.898 62.2245 180.614 61.6414 180.136 61.1479C179.657 60.6695 179.089 60.4152 178.431 60.4152H169.131V65.6486H177.354C178.371 65.6486 179.223 65.4244 179.911 64.9608C180.599 64.4973 180.943 63.8992 180.943 63.1366V62.8824L180.958 62.8974Z" fill="#FDFFFF"/>
<path d="M208.904 61.0407H208.575V60.0837H193.279V64.6891H203.312V63.7321H203.686V69.1449H203.312V68.1432H193.279V73.4064H208.575V72.4195H208.904V78.5202H208.575V77.5632H187.926V77.1894H188.913V56.3008H187.926V55.912H208.575V54.9102H208.904V61.0557V61.0407Z" fill="#FDFFFF"/>
<path d="M236.237 77.9396H228.88V77.6107H229.837L228.282 73.2893H217.741L216.036 77.6107H216.993V77.9396H210.324V77.6107H211.311L219.326 56.6023H218.369V56.2734H228.207V56.6023H227.25L235.28 77.6107H236.267V77.9396H236.237ZM227.385 70.6129L222.974 59.3985L218.712 70.6129H227.385Z" fill="#FDFFFF"/>
<path d="M260.181 61.0407H259.851V60.0388H251.523V77.2192H252.509V77.5482H245.377V77.2192H246.364V60.0388H237.975V60.9958H237.602V54.9102H237.96V55.8672H259.851V54.9102H260.181V61.0407Z" fill="#FDFFFF"/>
<path d="M282.74 61.0407H282.411V60.0837H267.115V64.6891H277.148V63.7321H277.521V69.1449H277.148V68.1432H267.115V73.4064H282.411V72.4195H282.74V78.5202H282.411V77.5632H261.762V77.1894H262.749V56.3008H261.762V55.912H282.411V54.9102H282.74V61.0557V61.0407Z" fill="#FDFFFF"/>
<path d="M307.529 77.9396H300.113V77.6107H301.114L295.478 69.4616H290.363V77.6107H291.351V77.9396H284.219V77.6107H285.176V56.6023H284.219V56.2734H297.915C299.65 56.2734 301.129 56.4379 302.355 56.7668C303.881 57.1706 305.062 57.8434 305.869 58.7854C306.826 59.892 307.305 61.3572 307.305 63.1815C307.305 64.6318 306.841 65.8729 305.929 66.8898C304.927 67.9962 303.507 68.7438 301.653 69.1325L300.786 69.312L306.543 77.6107H307.544V77.9396H307.529ZM302.176 62.8974C302.116 62.2245 301.833 61.6414 301.354 61.1479C300.876 60.6695 300.307 60.4152 299.65 60.4152H290.348V65.6486H298.572C299.59 65.6486 300.442 65.4244 301.129 64.9608C301.818 64.4973 302.161 63.8992 302.161 63.1366V62.8824L302.176 62.8974Z" fill="#FDFFFF"/>
<path d="M344.362 60.7746C344.362 63.1122 343.444 64.8655 341.607 66.0342C340.057 67.0242 338.029 67.5132 335.549 67.5132H326.352V77.8657H327.45V78.2474H319.816V77.8657H320.937V53.9286H319.816V53.5469H335.429C337.969 53.5469 340.009 54.0597 341.56 55.0855C343.42 56.3258 344.35 58.2222 344.35 60.7626L344.362 60.7746ZM338.899 60.6552C338.899 59.725 338.59 58.9975 337.981 58.4489C337.373 57.9121 336.622 57.6378 335.74 57.6378H326.34V63.5654H335.715C336.848 63.5654 337.66 63.3269 338.148 62.8499C338.637 62.3727 338.888 61.6332 338.888 60.6552H338.899Z" fill="#FDFFFF"/>
<path d="M370.812 78.3874H363.303V78.0517H364.279L362.693 73.641H351.933L350.193 78.0517H351.171V78.3874H344.363V78.0517H345.371L353.551 56.6092H352.574V56.2734H362.617V56.6092H361.639L369.835 78.0517H370.842V78.3874H370.812ZM361.777 70.9092L357.274 59.4631L352.926 70.9092H361.777Z" fill="#FDFFFF"/>
<path d="M396.591 75.1164L396.255 75.2995L395.767 74.6433L392.76 76.0321C391.722 76.5052 390.593 76.9019 389.386 77.1767C388.181 77.4666 386.991 77.6041 385.831 77.6041C381.681 77.6041 378.262 76.5967 375.576 74.5975C372.768 72.5067 371.363 69.7291 371.363 66.3106C371.363 62.8919 372.751 60.2517 375.529 58.0693C378.231 55.9632 381.528 54.9102 385.435 54.9102C386.441 54.9102 387.387 54.9712 388.272 55.0933C389.174 55.2153 390.059 55.4137 390.959 55.6885L394.851 56.8941L395.277 56.1157L395.614 56.2837L392.546 61.9762L392.226 61.7931L392.622 60.9995L389.127 59.5497C387.937 59.0613 386.686 58.8018 385.358 58.8018C382.871 58.8018 380.811 59.4733 379.147 60.8011C377.377 62.2205 376.507 64.0975 376.507 66.4326C376.507 68.5539 377.361 70.2479 379.071 71.5146C380.688 72.7203 382.763 73.3156 385.297 73.3156C386.029 73.3156 386.716 73.2545 387.372 73.1477C388.013 73.0255 388.639 72.8424 389.204 72.5525L393.049 70.6753L392.531 69.9122L392.851 69.7138L396.576 75.1164H396.591Z" fill="#FDFFFF"/>
<path d="M405.764 78.3874H398.453V78.0517H399.431V56.6092H398.453V56.2734H405.764V56.6092H404.787V78.0517H405.764V78.3874Z" fill="#FDFFFF"/>
<path d="M429.026 61.1215H428.598V60.1143H413.733V64.8453H424.279V63.8229H424.661V69.3781H424.279V68.3707H413.947V77.5735H414.969V78.0007H407.629V77.5735H408.605V56.2837H407.629V55.8869H428.689V54.9102H429.026V61.1368V61.1215Z" fill="#FDFFFF"/>
<path d="M438.803 78.3874H431.492V78.0517H432.469V56.6092H431.492V56.2734H438.803V56.6092H437.825V78.0517H438.803V78.3874Z" fill="#FDFFFF"/>
<path d="M466.106 75.1164L465.769 75.2995L465.281 74.6433L462.274 76.0321C461.237 76.5052 460.108 76.9019 458.902 77.1767C457.697 77.4666 456.506 77.6041 455.346 77.6041C451.195 77.6041 447.776 76.5967 445.09 74.5975C442.282 72.5067 440.879 69.7291 440.879 66.3106C440.879 62.8919 442.267 60.2517 445.045 58.0693C447.746 55.9632 451.042 54.9102 454.949 54.9102C455.957 54.9102 456.903 54.9712 457.788 55.0933C458.688 55.2153 459.573 55.4137 460.474 55.6885L464.366 56.8941L464.793 56.1157L465.128 56.2837L462.062 61.9762L461.741 61.7931L462.138 60.9995L458.643 59.5497C457.453 59.0613 456.201 58.8018 454.873 58.8018C452.385 58.8018 450.325 59.4733 448.661 60.8011C446.891 62.2205 446.021 64.0975 446.021 66.4326C446.021 68.5539 446.876 70.2479 448.585 71.5146C450.203 72.7203 452.279 73.3156 454.813 73.3156C455.545 73.3156 456.231 73.2545 456.888 73.1477C457.529 73.0255 458.155 72.8424 458.719 72.5525L462.565 70.6753L462.047 69.9122L462.367 69.7138L466.09 75.1164H466.106Z" fill="#FDFFFF"/>
</g>
<defs>
<linearGradient id="paint0_linear_219_2272" x1="95.1608" y1="18.1843" x2="47.8288" y2="164.961" gradientUnits="userSpaceOnUse">
<stop stop-color="#FF9900"/>
<stop offset="1" stop-color="#FF5C00"/>
</linearGradient>
<linearGradient id="paint1_linear_219_2272" x1="492.218" y1="18.1842" x2="539.55" y2="164.961" gradientUnits="userSpaceOnUse">
<stop stop-color="#FF9900"/>
<stop offset="1" stop-color="#FF5C00"/>
</linearGradient>
<clipPath id="clip0_219_2272">
<rect width="396.818" height="75" fill="white" transform="translate(100 29)"/>
</clipPath>
</defs>
</svg>
