<svg width="18" height="18" viewBox="0 0 18 18" fill="none" xmlns="http://www.w3.org/2000/svg">
<path d="M4.94178 16.3734C4.11559 15.4345 3.28943 14.4582 2.76366 13.294C2.23792 12.0547 2.0877 10.6277 2.35058 9.27575C2.61347 7.92383 3.2143 6.64699 4.07806 5.55795C4.00297 6.4968 4.34095 7.47318 4.97935 8.18671C4.6038 6.38414 5.20467 4.43134 6.40637 3.00431C7.60808 1.57729 9.26046 0.6384 10.9879 0C10.1242 0.901287 10.0115 2.32831 10.3495 3.53005C10.6875 4.73176 11.401 5.78327 12.0394 6.87231C12.6778 7.96135 13.2787 9.08796 13.3163 10.3272C13.6542 9.68883 14.0298 9.0504 14.2551 8.3369C14.4804 7.62337 14.5931 6.87231 14.4053 6.15878C15.0813 6.98497 15.4568 7.81113 15.6446 8.86264C15.8324 9.91416 15.7948 11.0032 15.6822 12.0547C15.5319 13.2189 15.2315 14.4206 14.5931 15.397C13.8421 16.5611 12.6403 17.3873 11.326 17.8379C8.99757 18.2511 6.70679 17.9131 4.94178 16.3734Z" fill="#F3705A"/>
<path d="M7.79585 17.7629C10.8752 18.9646 13.9171 15.3219 12.2271 12.5054C12.2271 12.4678 12.1896 12.4678 12.1896 12.4303C12.3398 13.97 11.9643 15.0966 11.2507 15.735C11.6263 14.8337 11.3634 13.7822 10.9127 12.8809C10.4621 12.0172 9.82371 11.2286 9.3355 10.4024C8.84729 9.53866 8.47178 8.56224 8.6971 7.58586C7.79581 8.26183 7.15741 9.27577 6.89452 10.3648C6.63164 11.4539 6.78186 12.6556 7.27007 13.6695C6.70677 13.2565 6.29369 12.5805 6.25612 11.867C5.65525 12.5805 5.27974 13.5193 5.31727 14.4582C5.31731 15.9228 6.48145 17.2371 7.79585 17.7629Z" fill="#FFD15C"/>
</svg>
