<svg width="249" height="50" viewBox="0 0 249 50" fill="none" xmlns="http://www.w3.org/2000/svg">
<path d="M44.9551 12.3622H50.6269V32.4143H44.9551V12.3622Z" fill="#073C71"/>
<path d="M73.7403 12.3622V32.4143H69.071L60.2195 21.7294V32.4143H54.6622V12.3622H59.3315L68.183 23.0471V12.3622H73.7403Z" fill="#073C71"/>
<path d="M82.0093 16.8596H75.8504V12.3622H93.8113V16.8596H87.6811V32.4143H82.0093V16.8596Z" fill="#073C71"/>
<path d="M112.023 28.0315V32.4143H95.9244V12.3622H111.651V16.745H101.539V20.1252H110.448V24.3648H101.539V28.0315H112.023Z" fill="#073C71"/>
<path d="M134.249 12.3622V32.4143H129.58L120.728 21.7294V32.4143H115.171V12.3622H119.84L128.692 23.0471V12.3622H134.249Z" fill="#073C71"/>
<path d="M145.297 32.8153C143.673 32.8153 142.098 32.6148 140.57 32.2137C139.042 31.8127 137.801 31.278 136.846 30.6096L138.708 26.4273C139.606 27.0193 140.646 27.4967 141.83 27.8596C143.014 28.2224 144.179 28.4039 145.325 28.4039C147.502 28.4039 148.591 27.8596 148.591 26.771C148.591 26.1981 148.276 25.778 147.645 25.5106C147.034 25.2242 146.041 24.9282 144.666 24.6226C143.158 24.298 141.897 23.9542 140.885 23.5914C139.873 23.2094 139.004 22.6079 138.278 21.7867C137.553 20.9655 137.19 19.8579 137.19 18.4638C137.19 17.2416 137.524 16.1435 138.192 15.1695C138.861 14.1765 139.854 13.3935 141.172 12.8206C142.508 12.2476 144.141 11.9612 146.07 11.9612C147.388 11.9612 148.686 12.114 149.966 12.4195C151.245 12.706 152.372 13.1357 153.346 13.7086L151.599 17.9195C149.689 16.8883 147.836 16.3726 146.041 16.3726C144.915 16.3726 144.093 16.5445 143.578 16.8883C143.062 17.2129 142.804 17.6426 142.804 18.1773C142.804 18.712 143.11 19.1131 143.721 19.3804C144.332 19.6478 145.316 19.9247 146.672 20.2112C148.199 20.5358 149.46 20.8891 150.453 21.2711C151.465 21.6339 152.334 22.2259 153.06 23.0471C153.804 23.8492 154.177 24.9473 154.177 26.3414C154.177 27.5445 153.843 28.633 153.174 29.607C152.506 30.5809 151.503 31.3639 150.166 31.9559C148.829 32.5288 147.206 32.8153 145.297 32.8153Z" fill="#073C71"/>
<path d="M156.797 12.3622H162.469V32.4143H156.797V12.3622Z" fill="#073C71"/>
<path d="M186.786 12.3622L178.193 32.4143H172.607L164.042 12.3622H170.172L175.614 25.4247L181.172 12.3622H186.786Z" fill="#073C71"/>
<path d="M204.059 28.0315V32.4143H187.96V12.3622H203.687V16.745H193.575V20.1252H202.484V24.3648H193.575V28.0315H204.059Z" fill="#073C71"/>
<path fill-rule="evenodd" clip-rule="evenodd" d="M17.3801 9.74282L17.381 9.74486C17.8141 10.6766 17.674 11.7824 17.0038 12.5775L6.17025 25.432V28.0765C6.17025 31.5321 6.17025 33.26 6.84276 34.5798C7.43432 35.7409 8.37825 36.6848 9.53926 37.2763C10.8591 37.9489 12.587 37.9489 16.0426 37.9489H27.7661C31.2217 37.9489 32.9496 37.9489 34.2694 37.2763C35.4305 36.6848 36.3744 35.7409 36.9659 34.5798C37.6385 33.26 37.6385 31.5321 37.6385 28.0765V16.353C37.6385 12.8974 37.6385 11.1695 36.9659 9.84966C36.3744 8.68865 35.4305 7.74472 34.2694 7.15316C32.9496 6.48065 31.2217 6.48065 27.7661 6.48065H16.0426C15.5611 6.48065 15.1131 6.48065 14.6951 6.48247L13.6013 8.2081H14.9717C16.0066 8.2081 16.9447 8.80863 17.3801 9.74282ZM25.2102 19.5101H32.1477V23.9395H32.1378V28.6039H32.1476V33.6209H13.3339V28.6039H18.978V23.5868H25.2102V19.5101ZM27.8739 10.6333L27.6771 11.8636L29.6799 12.184L11.272 25.5581L12.0019 26.5693L30.4098 13.1952L30.0885 15.2041L31.315 15.4003L31.9727 11.2889L27.8739 10.6333Z" fill="url(#paint0_linear_13550_75724)"/>
<path d="M6.17025 22.0128L15.3185 11.1579C15.3529 11.1172 15.379 11.0717 15.3969 11.0235C15.4384 10.9117 15.4348 10.7857 15.3827 10.6738C15.3083 10.5142 15.1481 10.4118 14.9717 10.4118H9.59555L6.17025 16.6853V22.0128Z" fill="url(#paint1_linear_13550_75724)"/>
<path d="M15.3827 10.6738C15.3083 10.5142 15.1481 10.4118 14.9717 10.4118H9.59555L14.9017 2.04061C14.9902 1.90099 14.9956 1.7242 14.9158 1.57959C14.836 1.43451 14.6835 1.34473 14.5183 1.34473H7.25927C7.08733 1.34473 6.93033 1.44173 6.85324 1.59542L0.0478403 15.1953C-0.0224999 15.3354 -0.0147906 15.5022 0.067778 15.6359C0.150825 15.7696 0.29645 15.8512 0.453878 15.8512H5.11919L0.0355585 27.9152C-0.051104 28.1215 0.0260417 28.3609 0.217018 28.4778C0.290495 28.5227 0.37216 28.5445 0.453399 28.5445C0.583606 28.5445 0.712005 28.4887 0.800953 28.3835L15.3185 11.1579C15.4324 11.0229 15.4571 10.8338 15.3827 10.6738Z" fill="url(#paint2_linear_13550_75724)"/>
<path d="M214.376 28.7683C217.939 28.1113 220.637 27.7828 222.468 27.7828C224.32 27.7828 225.246 28.181 225.246 28.9773C225.246 29.7338 223.663 30.5501 220.498 31.426C217.352 32.302 214.933 32.74 213.241 32.74C212.544 32.74 211.698 32.292 210.703 31.3962C209.707 30.5003 209.21 29.704 209.21 29.0072C209.21 28.5493 210.484 27.2752 213.032 25.1848C214.087 24.3089 215.142 23.3931 216.197 22.4375C217.252 21.462 218.148 20.4666 218.885 19.4513C219.641 18.436 220.02 17.5302 220.02 16.7338C220.02 15.9176 219.641 15.5095 218.885 15.5095C218.308 15.5095 217.79 15.7285 217.332 16.1664C216.894 16.5845 216.546 17.0125 216.287 17.4505C216.048 17.8686 215.869 18.0776 215.749 18.0776C215.232 18.0776 214.575 17.7989 213.779 17.2415C213.002 16.6641 212.614 16.1664 212.614 15.7484C212.614 14.6136 213.211 13.5386 214.406 12.5233C215.62 11.488 217.073 10.9704 218.766 10.9704C220.478 10.9704 221.821 11.498 222.797 12.5531C223.772 13.5883 224.26 14.9122 224.26 16.5248C224.26 18.6948 223.324 20.8747 221.453 23.0646C219.602 25.2545 217.243 27.1557 214.376 28.7683ZM230.681 33.3671C230.044 33.3671 229.327 32.9789 228.531 32.2025C227.754 31.426 227.366 30.7591 227.366 30.2017C227.366 29.6244 227.615 29.057 228.113 28.4995C228.61 27.9222 229.108 27.6335 229.606 27.6335C230.123 27.6335 230.701 28.191 231.338 29.3058C231.975 30.4207 232.293 31.2668 232.293 31.8441C232.293 32.1427 232.104 32.4712 231.726 32.8296C231.368 33.1879 231.019 33.3671 230.681 33.3671ZM244.695 17.6596C244.695 15.7683 244.426 14.8226 243.889 14.8226C243.551 14.8226 243.103 15.181 242.545 15.8977C241.988 16.5945 241.43 17.4804 240.873 18.5554C240.315 19.6106 239.838 20.8548 239.44 22.2882C239.041 23.7216 238.842 25.0753 238.842 26.3495C238.842 28.2606 239.161 29.2162 239.798 29.2162C240.335 29.2162 240.992 28.5593 241.769 27.2453C242.545 25.9115 243.222 24.3188 243.799 22.4674C244.397 20.596 244.695 18.9934 244.695 17.6596ZM246.368 27.1856C245.611 28.7783 244.645 30.1221 243.471 31.217C242.296 32.292 241.032 32.8296 239.678 32.8296C238.325 32.8296 237.11 32.1228 236.035 30.7093C234.98 29.276 234.453 27.7331 234.453 26.0807C234.453 24.4084 234.741 22.6266 235.319 20.7354C235.896 18.8242 236.632 17.1619 237.528 15.7484C238.424 14.315 239.43 13.1504 240.544 12.2545C241.679 11.3586 242.774 10.9107 243.829 10.9107C245.402 10.9107 246.646 11.4681 247.562 12.583C248.478 13.6978 248.936 15.2905 248.936 17.3609C248.936 18.7744 248.697 20.3671 248.219 22.1389C247.761 23.9107 247.144 25.593 246.368 27.1856Z" fill="#F97316"/>
<path d="M243.504 36.4101C242.742 36.279 241.981 36.1826 241.219 36.0708C240.968 36.0323 240.716 36.0323 240.464 36.013C239.919 35.9706 239.373 35.932 238.828 35.8896C238.525 35.8665 238.22 35.8395 237.917 35.8202C237.828 35.8164 237.741 35.8125 237.653 35.8125C237.455 35.8125 237.257 35.8202 237.059 35.8241C236.159 35.8241 235.259 35.8318 234.359 35.8318C234.144 35.8318 233.931 35.8472 233.716 35.8549C233.185 35.8742 232.655 35.8973 232.125 35.9166C231.527 35.9397 230.929 35.9475 230.33 35.9937C229.362 36.0631 228.395 36.1364 227.426 36.2058C226.865 36.2482 226.305 36.2713 225.744 36.3369C224.778 36.4525 223.814 36.5643 222.848 36.6761C222.321 36.7378 221.792 36.788 221.265 36.8766C220.267 37.0424 219.268 37.2044 218.27 37.3702C217.736 37.4588 217.202 37.5244 216.67 37.6593C215.675 37.9099 214.682 38.1605 213.688 38.4111C213.473 38.4651 213.258 38.5191 213.043 38.5731C212.614 38.681 212.187 38.8507 211.758 38.9933C211.731 39.0049 211.705 39.0165 211.678 39.0242C211.627 39.0666 211.581 39.1437 211.544 39.2555C211.488 39.4213 211.455 39.6526 211.455 39.8878C211.455 40.123 211.488 40.3543 211.544 40.524C211.594 40.6743 211.683 40.8131 211.758 40.7862C212.275 40.6127 212.791 40.4314 213.309 40.3004C213.789 40.1808 214.268 40.0575 214.748 39.9379C215.272 39.8068 215.795 39.6757 216.318 39.5447C216.529 39.4907 216.74 39.4213 216.952 39.3866C217.769 39.2516 218.585 39.1205 219.401 38.9895C219.91 38.9046 220.419 38.8237 220.928 38.7389C221.137 38.7042 221.348 38.6617 221.559 38.6348C222.368 38.5384 223.177 38.4497 223.986 38.361C224.476 38.3071 224.966 38.2492 225.457 38.1952C225.622 38.1759 225.786 38.1528 225.951 38.1413C226.825 38.0796 227.698 38.0217 228.572 37.9639C229.06 37.9292 229.547 37.8983 230.035 37.8636C230.208 37.8521 230.382 37.8328 230.555 37.829C231.456 37.802 232.357 37.775 233.258 37.748C233.82 37.7287 234.381 37.7133 234.944 37.7171C235.9 37.7248 236.857 37.7287 237.813 37.7364C238.001 37.7364 238.19 37.7596 238.379 37.7788C238.907 37.8251 239.435 37.8714 239.963 37.9176C240.359 37.9523 240.755 37.987 241.152 38.0217C241.433 38.0449 241.713 38.1065 241.994 38.1528C242.82 38.2839 243.647 38.4227 244.472 38.5731C244.682 38.6116 244.892 38.6579 245.101 38.7042C245.326 38.7504 245.552 38.8005 245.775 38.8738C245.811 38.8892 245.844 38.9085 245.88 38.9316C245.968 38.9856 246.053 38.9702 246.132 38.8353C246.205 38.708 246.26 38.496 246.283 38.2531C246.33 37.7441 246.226 37.2005 246.054 37.0579C245.903 36.9345 245.747 36.8844 245.592 36.8381C245.485 36.8072 245.38 36.7725 245.273 36.7417C245.069 36.68 244.863 36.6491 244.659 36.6029C244.275 36.5181 243.889 36.468 243.504 36.4024V36.4101Z" fill="#7C3AED"/>
<defs>
<linearGradient id="paint0_linear_13550_75724" x1="6.98456" y1="1.34473" x2="35.1927" y2="36.4933" gradientUnits="userSpaceOnUse">
<stop offset="0.260417" stop-color="#9B61FF"/>
<stop offset="1" stop-color="#5E00FF"/>
</linearGradient>
<linearGradient id="paint1_linear_13550_75724" x1="6.98456" y1="1.34473" x2="35.1927" y2="36.4933" gradientUnits="userSpaceOnUse">
<stop offset="0.260417" stop-color="#9B61FF"/>
<stop offset="1" stop-color="#5E00FF"/>
</linearGradient>
<linearGradient id="paint2_linear_13550_75724" x1="6.98456" y1="1.34473" x2="35.1927" y2="36.4933" gradientUnits="userSpaceOnUse">
<stop offset="0.260417" stop-color="#9B61FF"/>
<stop offset="1" stop-color="#5E00FF"/>
</linearGradient>
</defs>
</svg>
