<svg width="64" height="32" viewBox="0 0 64 32" fill="none" xmlns="http://www.w3.org/2000/svg">
<rect x="0.5" y="0.5" width="63" height="31" rx="3.5" fill="white"/>
<path fill-rule="evenodd" clip-rule="evenodd" d="M32 22.0889C30.6231 23.2806 28.837 24 26.8852 24C22.5303 24 19 20.4183 19 16C19 11.5817 22.5303 8 26.8852 8C28.837 8 30.6231 8.7194 32 9.91109C33.3769 8.7194 35.163 8 37.1147 8C41.4696 8 45 11.5817 45 16C45 20.4183 41.4696 24 37.1147 24C35.163 24 33.3769 23.2806 32 22.0889Z" fill="#ED0006"/>
<path fill-rule="evenodd" clip-rule="evenodd" d="M32 22.0889C33.6954 20.6216 34.7705 18.4382 34.7705 16C34.7705 13.5618 33.6954 11.3784 32 9.91108C33.3769 8.7194 35.163 8 37.1147 8C41.4696 8 45 11.5817 45 16C45 20.4183 41.4696 24 37.1147 24C35.163 24 33.3769 23.2806 32 22.0889Z" fill="#F9A000"/>
<path fill-rule="evenodd" clip-rule="evenodd" d="M32.0001 22.0889C33.6955 20.6215 34.7705 18.4381 34.7705 16C34.7705 13.5619 33.6955 11.3785 32.0001 9.91113C30.3047 11.3785 29.2296 13.5619 29.2296 16C29.2296 18.4381 30.3047 20.6215 32.0001 22.0889Z" fill="#FF5E00"/>
<rect x="0.5" y="0.5" width="63" height="31" rx="3.5" stroke="#CBD5E1"/>
</svg>
