<svg width="64" height="32" viewBox="0 0 64 32" fill="none" xmlns="http://www.w3.org/2000/svg">
<rect x="0.5" y="0.5" width="63" height="31" rx="3.5" fill="white"/>
<path d="M33.9294 16C33.9294 20.4183 30.3635 24 25.9647 24C21.5659 24 18 20.4183 18 16C18 11.5817 21.5659 8 25.9647 8C30.3635 8 33.9294 11.5817 33.9294 16Z" fill="#ED0006"/>
<path d="M44.2619 16C44.2619 20.4183 40.696 24 36.2972 24C31.8984 24 28.3325 20.4183 28.3325 16C28.3325 11.5817 31.8984 8 36.2972 8C40.696 8 44.2619 11.5817 44.2619 16Z" fill="#0099DF"/>
<path fill-rule="evenodd" clip-rule="evenodd" d="M31.131 22.0889C32.8435 20.6215 33.9294 18.4381 33.9294 16C33.9294 13.5619 32.8435 11.3785 31.131 9.91113C29.4185 11.3785 28.3326 13.5619 28.3326 16C28.3326 18.4381 29.4185 20.6215 31.131 22.0889Z" fill="#6C6BBD"/>
<rect x="0.5" y="0.5" width="63" height="31" rx="3.5" stroke="#CBD5E1"/>
</svg>
