<svg width="64" height="32" viewBox="0 0 64 32" fill="none" xmlns="http://www.w3.org/2000/svg">
<rect x="0.5" y="0.5" width="63" height="31" rx="3.5" fill="white"/>
<path d="M9.3414 13.4699L8.90857 15.0627L11.3757 13.4612L9.76557 19.4862H11.4103L13.7909 10.5786" fill="#3395FF"/>
<path d="M6.68387 16.9498L6 19.4862H9.36739L10.7438 14.3269L6.68387 16.9498ZM18.3702 14.7251C18.2923 15.0281 18.1278 15.2531 17.8941 15.4003C17.6604 15.5475 17.3314 15.6167 16.8986 15.6167H15.5395L16.0156 13.8421H17.3747C17.7989 13.8421 18.0932 13.9114 18.249 14.0585C18.4048 14.2057 18.4481 14.4221 18.3702 14.7251ZM19.7725 14.6905C19.9457 14.0499 19.8764 13.5564 19.5561 13.2102C19.2445 12.8639 18.6905 12.6908 17.8941 12.6908H14.8643L13.0378 19.4948H14.5094L15.2452 16.7507H16.2061C16.4225 16.7507 16.5956 16.7853 16.7168 16.8546C16.838 16.9238 16.9159 17.045 16.9332 17.2268L17.1929 19.4948H18.7684L18.5087 17.3826C18.4568 16.9152 18.2403 16.6382 17.8595 16.5516C18.3442 16.4131 18.7511 16.1794 19.0714 15.8591C19.4263 15.5301 19.66 15.1319 19.7725 14.6905ZM23.3477 17.0537C23.2265 17.5125 23.0361 17.8587 22.7764 18.1098C22.5167 18.3522 22.2137 18.4734 21.8588 18.4734C21.4952 18.4734 21.2528 18.3522 21.123 18.1184C20.9931 17.8761 20.9845 17.5385 21.1057 17.0797C21.2268 16.6295 21.4173 16.2746 21.6856 16.0149C21.954 15.7639 22.2656 15.634 22.6205 15.634C22.9755 15.634 23.2178 15.7552 23.3477 16.0062C23.4689 16.2573 23.4775 16.6035 23.3477 17.0537ZM23.9969 14.6472L23.8151 15.331C23.7372 15.08 23.5814 14.8896 23.3564 14.7424C23.1313 14.5952 22.8456 14.526 22.508 14.526C22.0925 14.526 21.6943 14.6299 21.3134 14.8463C20.9325 15.0627 20.5949 15.3657 20.3093 15.7466C20.0236 16.1361 19.8158 16.5776 19.6773 17.071C19.5475 17.5731 19.5215 18.0059 19.5994 18.3868C19.6773 18.7677 19.8505 19.062 20.1188 19.2611C20.3872 19.4689 20.7334 19.5641 21.1489 19.5641C21.4779 19.5641 21.8155 19.4948 22.1098 19.3563C22.4128 19.2178 22.6725 19.0274 22.8889 18.7763L22.6985 19.4948H24.1181L25.4166 14.6472H23.9969ZM30.5326 14.6472H26.3948L26.1091 15.7292H28.5156L25.33 18.482L25.0617 19.4948H29.3294L29.615 18.4128H27.0354L30.2643 15.6254L30.5326 14.6472ZM34.177 17.0537C34.0472 17.5298 33.8567 17.8934 33.6057 18.1184C33.3547 18.3522 33.0517 18.4734 32.6968 18.4734C31.9523 18.4734 31.7099 17.9973 31.9609 17.0537C32.0908 16.5862 32.2812 16.2313 32.5323 15.9889C32.7833 15.7466 33.095 15.634 33.4585 15.634C33.8134 15.634 34.0558 15.7552 34.177 15.9889C34.3069 16.2227 34.3069 16.5776 34.177 17.0537ZM35.0081 14.8376C34.6791 14.6299 34.2636 14.5346 33.7529 14.5346C33.2335 14.5346 32.7574 14.6385 32.3159 14.8376C31.8744 15.0367 31.4935 15.3397 31.1905 15.7206C30.8789 16.1015 30.6538 16.5516 30.524 17.0623C30.3855 17.5731 30.3768 18.0146 30.4807 18.3955C30.5846 18.7763 30.801 19.0707 31.1299 19.2698C31.4589 19.4775 31.883 19.5727 32.4024 19.5727C32.9132 19.5727 33.3893 19.4689 33.8221 19.2698C34.2549 19.062 34.6272 18.7763 34.9388 18.3868C35.2504 18.0059 35.4668 17.5558 35.6054 17.045C35.7439 16.5343 35.7612 16.0928 35.6573 15.7033C35.5621 15.3224 35.3457 15.0281 35.0081 14.8376ZM40.0894 15.9457L40.453 14.6299C40.3318 14.5693 40.1673 14.5346 39.9682 14.5346C39.6393 14.5346 39.3277 14.6125 39.0247 14.777C38.765 14.9155 38.5486 15.1146 38.3581 15.357L38.5486 14.6472H38.1331H37.1202L35.8131 19.4948H37.2587L37.934 16.9585C38.0292 16.5862 38.211 16.3006 38.4707 16.0928C38.7217 15.8851 39.042 15.7812 39.4315 15.7812C39.6566 15.7812 39.8817 15.8418 40.0894 15.9457ZM44.1061 17.071C43.9849 17.5211 43.7944 17.8674 43.5434 18.1098C43.2924 18.3522 42.9807 18.4647 42.6258 18.4647C42.2709 18.4647 42.0285 18.3435 41.8987 18.1011C41.7688 17.8587 41.7601 17.5125 41.89 17.0537C42.0112 16.5949 42.2016 16.24 42.4613 15.9976C42.721 15.7552 43.0327 15.6254 43.3876 15.6254C43.7425 15.6254 43.9762 15.7552 44.0974 16.0062C44.2186 16.2659 44.2186 16.6209 44.1061 17.071ZM45.1102 14.8376C44.8419 14.6212 44.5043 14.5173 44.0888 14.5173C43.7252 14.5173 43.3789 14.5952 43.05 14.7684C42.721 14.9328 42.4527 15.1579 42.2536 15.4436L42.2622 15.4089L42.5046 14.6385H41.0936L40.7387 15.9803L40.73 16.0236L39.2411 21.5551H40.6867L41.4312 18.7763C41.5091 19.0274 41.6563 19.2178 41.89 19.3563C42.1237 19.4948 42.4007 19.5641 42.7383 19.5641C43.1539 19.5641 43.5607 19.4602 43.9416 19.2611C44.3225 19.062 44.6514 18.7677 44.9284 18.3868C45.2054 18.0059 45.4132 17.5731 45.5517 17.071C45.6902 16.5776 45.7162 16.1274 45.6383 15.7466C45.5517 15.357 45.3786 15.054 45.1102 14.8376ZM49.8973 17.0537C49.7761 17.5125 49.5857 17.8587 49.326 18.1011C49.0749 18.3435 48.7633 18.4647 48.4084 18.4647C48.0448 18.4647 47.7938 18.3435 47.6726 18.1098C47.5427 17.8674 47.5341 17.5298 47.6553 17.071C47.7764 16.6209 47.9669 16.2659 48.2352 16.0062C48.5036 15.7466 48.8152 15.6254 49.1701 15.6254C49.5251 15.6254 49.7674 15.7466 49.8973 15.9889C50.0185 16.24 50.0185 16.5949 49.8973 17.0537ZM50.5465 14.6472L50.3647 15.331C50.2868 15.08 50.131 14.8896 49.9059 14.7424C49.6722 14.5952 49.3952 14.526 49.0576 14.526C48.6421 14.526 48.2439 14.6299 47.863 14.8463C47.4821 15.0627 47.1445 15.357 46.8588 15.7466C46.5732 16.1361 46.3654 16.5776 46.2269 17.071C46.0971 17.5731 46.0711 18.0059 46.149 18.3868C46.2269 18.7677 46.4 19.0533 46.6684 19.2611C46.9368 19.4602 47.283 19.5641 47.6985 19.5641C48.0361 19.5641 48.3564 19.4948 48.6594 19.3563C48.9537 19.2178 49.2221 19.0187 49.4385 18.7763L49.2481 19.4948H50.6677L51.9662 14.6472H50.5465ZM57.9392 14.6472H57.0649C57.0389 14.6472 57.013 14.6472 56.987 14.6472H56.5369L56.3031 14.9675L56.2425 15.0454L56.2166 15.08L54.3727 17.651L53.9918 14.6472H52.4856L53.2474 19.2178L51.5593 21.5551H53.0656L53.4724 20.9751C53.4811 20.9578 53.4984 20.9405 53.5071 20.9232L53.9832 20.248L54.0005 20.2306L56.1387 17.2009L57.9392 14.6472Z" fill="#072654"/>
<rect x="0.5" y="0.5" width="63" height="31" rx="3.5" stroke="#CBD5E1"/>
</svg>
