<svg width="64" height="32" viewBox="0 0 64 32" fill="none" xmlns="http://www.w3.org/2000/svg">
<rect x="0.5" y="0.5" width="63" height="31" rx="3.5" fill="white"/>
<path fill-rule="evenodd" clip-rule="evenodd" d="M39.9375 13.0983H42.1467V16.664L44.0579 13.0983H46.0854L41.9976 20.3071C41.9976 20.3071 41.6182 20.9117 41.1475 21.2315C40.7608 21.4946 40.2853 21.4827 40.14 21.4934C39.3326 21.4863 38.3586 21.484 38.3586 21.484L38.8284 19.7657L39.5887 19.7643C39.5887 19.7643 39.9367 19.7282 40.0711 19.554C40.1991 19.3878 40.2646 19.2217 40.2646 18.978C40.2646 18.6128 39.9375 13.0982 39.9375 13.0982V13.0983ZM16.9815 13.8104C16.674 14.5341 15.7206 14.4518 15.7206 14.4518L14.6106 14.4466L15.0158 12.914C15.0158 12.914 16.0088 12.9178 16.4959 12.9178C17.0173 12.9178 17.1802 13.3432 16.9817 13.8103L16.9815 13.8104ZM19.5044 12.7661C19.6934 11.2454 18.3761 10.8615 16.9519 10.8615H13.2092L11 19.0411H13.3781L14.1206 16.2639L15.4547 16.275C15.4547 16.275 16.0052 16.2425 16.016 16.7677C16.0276 17.328 15.6073 18.3567 15.6344 19.0411H18.0775L18.0721 18.8233C18.0721 18.8233 17.8691 18.7686 17.8917 18.4788C17.9011 18.3583 18.0321 17.9767 18.2037 17.4622C18.3071 17.2353 18.4631 16.6972 18.4487 16.259C18.4308 15.712 18.0929 15.4581 17.6057 15.2806C19.1245 14.9188 19.5041 12.7663 19.5042 12.7663L19.5044 12.7661ZM20.044 13.0983H22.2131L21.3198 16.5897C21.3198 16.5897 21.097 17.3683 21.8139 17.4283C22.3803 17.4759 22.8018 16.7893 22.9399 16.3243C23.1213 15.7135 23.8263 13.0982 23.8263 13.0982H26.061L24.3606 19.041H22.4095L22.6491 18.192C22.6491 18.192 21.6537 19.4251 20.1748 19.2771C18.8602 19.146 18.7469 18.1773 18.9747 16.9689C19.0865 16.3756 20.044 13.0983 20.044 13.0983ZM31.1844 13.8292C30.8749 14.7062 30.0221 14.6028 30.0221 14.6028L28.8578 14.6032L29.3174 12.8654C29.3174 12.8654 30.0544 12.8693 30.5411 12.8693C31.137 12.8693 31.3532 13.3502 31.1844 13.829V13.8292ZM33.6296 13.0171C33.8188 11.4962 32.6777 10.8613 31.2533 10.8613H27.5109L25.3018 19.041H27.6799L28.3486 16.5191L30.2433 16.5309C30.2433 16.5309 33.1775 16.657 33.6298 13.0171H33.6296ZM35.629 17.8303C35.2574 17.926 34.8068 17.9781 34.7174 17.6351C34.472 16.6953 36.6379 16.4202 36.6379 16.4202C36.6527 17.2765 35.914 17.7565 35.6288 17.8303H35.629ZM38.9054 16.1102C39.1911 15.1216 39.5524 14.1856 39.2616 13.6668C38.8164 12.8727 38.0116 12.803 36.8343 12.803C35.5336 12.803 33.9277 13.054 33.4043 14.8111H35.5697C35.5697 14.8111 35.7671 14.1493 36.5799 14.191C37.2993 14.2279 37.2599 14.7307 36.9948 15.0087C36.5298 15.4959 35.2457 15.2257 33.8234 15.7269C32.5808 16.165 32.146 17.8249 32.4159 18.4873C32.6776 19.1297 33.1648 19.2115 33.8221 19.2771C34.8778 19.3826 35.6872 18.7845 36.064 18.4336C36.064 18.8233 36.074 19.041 36.074 19.041H38.3527L38.3472 18.8231C38.3472 18.8231 38.1442 18.7684 38.1668 18.4786C38.1832 18.2664 38.5769 17.2455 38.9053 16.1102H38.9054Z" fill="#382A8D"/>
<path fill-rule="evenodd" clip-rule="evenodd" d="M48.9196 11.7252L46.3689 20.7413L51.1432 16.2332L48.9196 11.7252Z" fill="#1D8546"/>
<path fill-rule="evenodd" clip-rule="evenodd" d="M47.2845 11.7252L44.7338 20.7413L49.5083 16.2332L47.2845 11.7252Z" fill="#EC6B00"/>
<path fill-rule="evenodd" clip-rule="evenodd" d="M52.0336 10.0888C51.5489 10.0888 51.1542 10.4895 51.1542 10.9821C51.1542 11.4746 51.5487 11.8753 52.0336 11.8753C52.5183 11.8753 52.9128 11.4746 52.9128 10.9821C52.9128 10.4894 52.5183 10.0888 52.0336 10.0888ZM52.02 11.3486V10.6523H52.1568L52.3188 11.1452C52.3339 11.1911 52.3446 11.2255 52.3518 11.2482C52.3595 11.2229 52.3715 11.1857 52.3883 11.1365L52.5523 10.6523H52.6742V11.3486H52.5868V10.7657L52.3876 11.3486H52.3059L52.1076 10.7558V11.3486H52.02ZM51.5646 11.3486V10.7346H51.339V10.6524H51.8821V10.7346H51.6555V11.3486H51.5646ZM52.0336 11.9638C51.5005 11.9638 51.0671 11.5234 51.0671 10.982C51.0671 10.4406 51.5007 10 52.0336 10C52.5664 10 53 10.4406 53 10.982C53 11.5232 52.5664 11.9638 52.0336 11.9638Z" fill="black"/>
<rect x="0.5" y="0.5" width="63" height="31" rx="3.5" stroke="#CBD5E1"/>
</svg>
