<svg width="64" height="32" viewBox="0 0 64 32" fill="none" xmlns="http://www.w3.org/2000/svg">
<rect x="0.5" y="0.5" width="63" height="31" rx="3.5" fill="white"/>
<path fill-rule="evenodd" clip-rule="evenodd" d="M24.0003 20.922H21.2309L19.1542 13.1643C19.0557 12.8075 18.8464 12.492 18.5385 12.3433C17.7702 11.9696 16.9236 11.6723 16 11.5223V11.2236H20.4613C21.077 11.2236 21.5388 11.6723 21.6158 12.1933L22.6933 17.7892L25.4613 11.2236H28.1538L24.0003 20.922ZM29.6931 20.922H27.0776L29.2313 11.2236H31.8468L29.6931 20.922ZM35.2305 13.9104C35.3075 13.3881 35.7692 13.0894 36.308 13.0894C37.1546 13.0144 38.0769 13.1644 38.8465 13.5368L39.3083 11.4487C38.5386 11.15 37.692 11 36.9237 11C34.3852 11 32.5381 12.3434 32.5381 14.2078C32.5381 15.6262 33.8465 16.3709 34.77 16.8196C35.7692 17.2669 36.1541 17.5656 36.0771 18.013C36.0771 18.684 35.3075 18.9827 34.5392 18.9827C33.6156 18.9827 32.692 18.759 31.8467 18.3853L31.3849 20.4748C32.3085 20.8471 33.3077 20.9971 34.2313 20.9971C37.0777 21.0708 38.8465 19.7287 38.8465 17.7143C38.8465 15.1775 35.2305 15.0288 35.2305 13.9104ZM48.0001 20.922L45.9234 11.2236H43.6927C43.2309 11.2236 42.7691 11.5223 42.6152 11.9696L38.7697 20.922H41.4621L41.9995 19.505H45.3077L45.6155 20.922H48.0001ZM44.0775 13.8354L44.8458 17.4905H42.6921L44.0775 13.8354Z" fill="#172B85"/>
<rect x="0.5" y="0.5" width="63" height="31" rx="3.5" stroke="#CBD5E1"/>
</svg>
